<svg width="192" height="54" viewBox="0 0 192 54" fill="none" xmlns="http://www.w3.org/2000/svg">
<path d="M64.8133 42.055L65.3633 42.605H90.8025L91.3525 42.055V35.5811L90.8025 35.0311H76.2478L91.0971 17.0307L91.2229 16.6808V11.6407L90.6729 11.0907H65.4929L64.9429 11.6407V18.1146L65.4929 18.6646H79.8294L64.9395 36.6644L64.8133 37.0149V42.055ZM121.669 38.4413L121.669 38.4413L121.673 38.4372C123.078 36.964 124.18 35.2235 124.982 33.2221C125.787 31.2105 126.187 29.0258 126.187 26.674V24.5016L125.637 23.9516H109.441L108.891 24.5016V30.9755L109.441 31.5255H116.81C116.367 32.4985 115.657 33.3208 114.662 33.9955C113.466 34.7967 112.064 35.2049 110.434 35.2049C109.264 35.2049 108.185 35.0003 107.193 34.5963C106.193 34.1608 105.335 33.5797 104.612 32.8543C103.913 32.0954 103.345 31.2126 102.91 30.2016C102.507 29.172 102.303 28.0558 102.303 26.8478C102.303 25.6672 102.507 24.579 102.911 23.5775L102.913 23.5728C103.322 22.5302 103.862 21.6501 104.529 20.9242C105.223 20.2006 106.051 19.6358 107.019 19.2301L107.019 19.2302L107.031 19.225C107.992 18.7951 109.038 18.5777 110.175 18.5777C111.587 18.5777 112.897 18.891 114.113 19.5161L114.113 19.5162L114.122 19.5205C115.337 20.118 116.411 21.0039 117.344 22.1911L118.146 22.2587L123.372 17.5228L123.434 16.7746C121.938 14.8775 120.011 13.3778 117.665 12.2728C115.316 11.1658 112.817 10.6127 110.175 10.6127C107.861 10.6127 105.687 11.0308 103.659 11.8712C101.639 12.7076 99.8809 13.8606 98.3888 15.3311C96.8961 16.7732 95.7189 18.484 94.8567 20.4579C93.9897 22.4429 93.5582 24.5749 93.5582 26.8478C93.5582 29.1208 93.9897 31.2528 94.8567 33.2378C95.7188 35.2116 96.8955 36.9359 98.3866 38.4059L98.3866 38.406L98.3946 38.4136C99.9142 39.8524 101.685 40.989 103.702 41.8245L103.705 41.8256C105.761 42.6652 107.963 43.083 110.305 43.083C112.56 43.083 114.663 42.6796 116.607 41.8673L116.61 41.8657C118.573 41.028 120.262 39.8872 121.669 38.4413ZM131.173 42.055L131.723 42.605H155.737L156.287 42.055V35.5811L155.737 35.0311H139.701V30.3958H149.992L150.542 29.8458V23.5892L149.992 23.0392H139.701V18.6646H155.564L156.114 18.1146V11.6407L155.564 11.0907H131.723L131.173 11.6407V42.055ZM162.268 11.0907L161.718 11.6407V42.055L162.268 42.605H169.265L169.815 42.055V25.3309L182.996 42.3913L183.431 42.605H189.996L190.546 42.055V11.6407L189.996 11.0907H183L182.45 11.6407V27.6793L169.699 11.3028L169.265 11.0907H162.268Z" fill="#5053F2" stroke="black" stroke-width="1.1" stroke-linejoin="bevel"/>
<path d="M1 32.3058V42.9179L26.1032 32.3058V21.6936L13.5516 26.9997L1 32.3058Z" fill="#6568EE" stroke="black" stroke-width="1.1" stroke-linejoin="bevel"/>
<path d="M26.1032 11.0815L1 21.6937L13.5516 26.9998L26.1032 21.6937L38.6549 16.3876L26.1032 11.0815Z" fill="#292CC4" stroke="black" stroke-width="1.1" stroke-linejoin="bevel"/>
<path d="M1 11.6122L26.1032 1V11.0815L1 21.6937V11.6122Z" fill="#6568EE" stroke="black" stroke-width="1.1" stroke-linejoin="bevel"/>
<path d="M1 42.9186L26.1032 53.0001L51.2065 42.9186L26.1032 32.3064L1 42.9186Z" fill="#3C3FDD" stroke="black" stroke-width="1.1" stroke-linejoin="bevel"/>
<path d="M26.1035 1V11.0815L38.6551 16.3876L26.1035 21.6937V32.3059L51.2068 42.918V32.3059L38.6551 26.9998L51.2068 21.6937V11.6122L26.1035 1Z" fill="#5053F2" stroke="black" stroke-width="1.1" stroke-linejoin="bevel"/>
</svg>
