<svg width="459" height="475" viewBox="0 0 459 475" fill="none" xmlns="http://www.w3.org/2000/svg">
<path d="M0 285.761V382.629L229.143 285.761V188.893L114.571 237.327L0 285.761Z" fill="url(#paint0_linear_1201_1766)"/>
<path d="M229.143 92.0264L0 188.894L114.571 237.328L229.143 188.894L343.714 140.46L229.143 92.0264Z" fill="url(#paint1_linear_1201_1766)"/>
<path d="M0 96.868L229.143 0V92.0246L0 188.893V96.868Z" fill="url(#paint2_linear_1201_1766)"/>
<path d="M229.143 0V92.0246L343.714 140.459L229.143 188.893V285.76L458.286 382.628V285.76L343.714 237.327L458.286 188.893V96.868L229.143 0Z" fill="url(#paint3_linear_1201_1766)"/>
<path d="M0 382.63L229.143 474.654L458.286 382.63L229.143 285.762L0 382.63Z" fill="url(#paint4_linear_1201_1766)"/>
<defs>
<linearGradient id="paint0_linear_1201_1766" x1="229.143" y1="235.057" x2="-1.64478" y2="327.475" gradientUnits="userSpaceOnUse">
<stop stop-color="white" stop-opacity="0.95"/>
<stop offset="1" stop-color="white" stop-opacity="0.75"/>
</linearGradient>
<linearGradient id="paint1_linear_1201_1766" x1="40.9184" y1="-102.294" x2="373.983" y2="341.275" gradientUnits="userSpaceOnUse">
<stop stop-color="white"/>
<stop offset="0.338542" stop-color="white" stop-opacity="0.8"/>
<stop offset="1" stop-color="#7B61FF"/>
</linearGradient>
<linearGradient id="paint2_linear_1201_1766" x1="229.143" y1="45.0102" x2="-1.87267e-05" y2="139.122" gradientUnits="userSpaceOnUse">
<stop stop-color="white" stop-opacity="0.95"/>
<stop offset="1" stop-color="white" stop-opacity="0.75"/>
</linearGradient>
<linearGradient id="paint3_linear_1201_1766" x1="638.326" y1="233.235" x2="-73.6531" y2="122.755" gradientUnits="userSpaceOnUse">
<stop stop-color="#7B61FF"/>
<stop offset="0.653325" stop-color="white" stop-opacity="0.8"/>
<stop offset="1" stop-color="white"/>
</linearGradient>
<linearGradient id="paint4_linear_1201_1766" x1="319.163" y1="12.2767" x2="415.81" y2="615.422" gradientUnits="userSpaceOnUse">
<stop stop-color="white"/>
<stop offset="0.358024" stop-color="white" stop-opacity="0.8"/>
<stop offset="1" stop-color="#7B61FF"/>
</linearGradient>
</defs>
</svg>
