<svg width="232" height="300" viewBox="0 0 232 300" fill="none" xmlns="http://www.w3.org/2000/svg">
<path d="M43.708 209.1L80.2032 188.135L92.6271 194.347V235.501L43.708 209.1Z" fill="#5053F2" stroke="#2F2F2F" stroke-width="1.55299" stroke-linejoin="bevel"/>
<path d="M1 224.63V139.216L44.4836 161.734V209.1L92.6262 235.501V170.276L122.133 155.522V77.873L92.6262 65.4491V19.636L133.004 36.7188V299.174L1 224.63Z" fill="#7577FA" stroke="#2F2F2F" stroke-width="1.55299" stroke-linejoin="bevel"/>
<path d="M88.7442 94.1787V138.439L46.0371 117.473V76.3193L88.7442 94.1787Z" fill="#7577FA" stroke="#2F2F2F" stroke-width="1.55299" stroke-linejoin="bevel"/>
<path d="M197.267 121.605V221.435L158.637 205.18V104.958L197.267 121.605Z" fill="#7577FA" stroke="#2F2F2F" stroke-width="1.55299" stroke-linejoin="bevel"/>
<path d="M170.276 17.3064L133.004 35.9422L93.4033 19.6358L129.898 1L170.276 17.3064Z" fill="#5053F2" stroke="#2F2F2F" stroke-width="1.55299" stroke-linejoin="bevel"/>
<path d="M122.133 77.8729L88.7442 94.1792L46.0371 76.3199L80.9793 60.79L122.133 77.8729Z" fill="#5053F2" stroke="#2F2F2F" stroke-width="1.55299" stroke-linejoin="bevel"/>
<path d="M231 104.279L197.267 121.361L154.56 103.502L189.502 87.9722L231 104.279Z" fill="#5053F2" stroke="#2F2F2F" stroke-width="1.55299" stroke-linejoin="bevel"/>
<path d="M198.042 221.244L164.653 237.55L160.335 219.789L156.888 204.161L198.042 221.244Z" fill="#5053F2" stroke="#2F2F2F" stroke-width="1.55299" stroke-linejoin="bevel"/>
<path d="M88.7437 138.439L44.4836 161.734L1 139.216L45.2601 117.474L88.7437 138.439Z" fill="#5053F2" stroke="#2F2F2F" stroke-width="1.55299" stroke-linejoin="bevel"/>
<path d="M230.662 246.627L133.005 299.173V35.942L170.277 17.3062V234.737L197.028 221.487V121.266L230.662 104.958V246.627Z" fill="#3C3FDD" stroke="#2F2F2F" stroke-width="1.55299" stroke-linejoin="bevel"/>
<path d="M122.133 155.522V77.873L88.7435 94.1794V138.44L44.4834 161.734V208.324L80.2021 188.135V176.488L122.133 155.522Z" fill="#3C3FDD" stroke="#2F2F2F" stroke-width="1.55299" stroke-linejoin="bevel"/>
</svg>
