<svg width="81" height="84" viewBox="0 0 81 84" fill="none" xmlns="http://www.w3.org/2000/svg">
<path d="M1 50.2593V66.9574L40.4997 50.2593V33.5612L20.7498 41.9102L1 50.2593Z" fill="#6568EE" stroke="#2F2F2F" stroke-width="1.29463" stroke-linejoin="bevel"/>
<path d="M40.4996 16.8633L1 33.5614L20.7498 41.9104L40.4996 33.5614L60.2495 25.2123L40.4996 16.8633Z" fill="#292CC4" stroke="#2F2F2F" stroke-width="1.29463" stroke-linejoin="bevel"/>
<path d="M1 17.6982L40.4997 1.00012V16.8633L1 33.5614V17.6982Z" fill="#6568EE" stroke="#2F2F2F" stroke-width="1.29463" stroke-linejoin="bevel"/>
<path d="M1 66.9574L40.4997 82.8206L79.9993 66.9574L40.4997 50.2593L1 66.9574Z" fill="#3C3FDD" stroke="#2F2F2F" stroke-width="1.29463" stroke-linejoin="bevel"/>
<path d="M40.501 1V16.8632L60.2508 25.2122L40.501 33.5613V50.2594L80.0006 66.9575V50.2594L60.2508 41.9103L80.0006 33.5613V17.6981L40.501 1Z" fill="#5053F2" stroke="#2F2F2F" stroke-width="1.29463" stroke-linejoin="bevel"/>
</svg>
