<svg width="127" height="34" viewBox="0 0 127 34" fill="none" xmlns="http://www.w3.org/2000/svg">
<path d="M1.09245 32.055L1.36328 32.3259H26.8025L27.0733 32.055V25.5811L26.8025 25.3103H11.6556L26.8818 6.8531L26.9437 6.68075V1.64066L26.6729 1.36983H1.49285L1.22202 1.64066V8.11457L1.49285 8.38541H16.4227L1.1546 26.8423L1.09245 27.0149V32.055ZM57.4691 28.2466L57.471 28.2446C58.8496 26.7987 59.9331 25.0889 60.7225 23.1183C61.5139 21.1427 61.9081 18.9936 61.9081 16.674V14.5016L61.6372 14.2308H45.4408L45.17 14.5016V20.9755L45.4408 21.2463H53.2268C52.7826 22.4437 51.9834 23.4365 50.8178 24.2268C49.5716 25.0625 48.1139 25.4841 46.4342 25.4841C45.2296 25.4841 44.1138 25.2731 43.0842 24.8536C42.0513 24.4039 41.161 23.8016 40.4104 23.0475C39.6862 22.2621 39.0997 21.3496 38.6513 20.3077C38.2338 19.242 38.0237 18.0896 38.0237 16.8478C38.0237 15.6343 38.234 14.5103 38.652 13.4732L38.6529 13.4708C39.0736 12.3987 39.632 11.4875 40.3259 10.7331C41.0475 9.9798 41.9081 9.39296 42.9109 8.97264L42.9109 8.97271L42.9167 8.97011C43.9163 8.5232 45.0013 8.29851 46.1751 8.29851C47.6305 8.29851 48.9844 8.6219 50.2407 9.26786L50.2407 9.2679L50.245 9.27004C51.5009 9.8877 52.6073 10.8018 53.5636 12.0186L53.9584 12.0519L59.1845 7.31593L59.2152 6.9475C57.7475 5.08706 55.856 3.61346 53.5465 2.52534C51.235 1.43625 48.7768 0.891887 46.1751 0.891887C43.8957 0.891887 41.7584 1.30362 39.7656 2.12908C37.7774 2.95266 36.0491 4.0865 34.5836 5.53109C33.1178 6.94688 31.9609 8.62732 31.1125 10.5697C30.2618 12.5175 29.8374 14.6112 29.8374 16.8478C29.8374 19.0845 30.2618 21.1782 31.1125 23.126C31.9609 25.0683 33.1176 26.7628 34.5826 28.2071L34.5826 28.2072L34.5866 28.2109C36.0802 29.6251 37.8218 30.7435 39.8088 31.5666L39.8101 31.5671C41.8313 32.3922 43.997 32.8038 46.3046 32.8038C48.5259 32.8038 50.5917 32.4067 52.4989 31.6097L52.5008 31.6089C54.4319 30.7847 56.0892 29.6643 57.4691 28.2466ZM67.4519 32.055L67.7227 32.3259H91.7366L92.0074 32.055V25.5811L91.7366 25.3103H75.4223V20.1167H85.9923L86.2631 19.8458V13.5892L85.9923 13.3183H75.4223V8.38541H91.5638L91.8347 8.11457V1.64066L91.5638 1.36983H67.7227L67.4519 1.64066V32.055ZM98.2681 1.36983L97.9973 1.64066V32.055L98.2681 32.3259H105.265L105.536 32.055V14.513L119.217 32.2206L119.431 32.3259H125.996L126.267 32.055V1.64066L125.996 1.36983H119L118.729 1.64066V18.4923L105.479 1.47428L105.265 1.36983H98.2681Z" fill="#5053F2" stroke="black" stroke-width="0.541666" stroke-linejoin="bevel"/>
</svg>
